<?xml version="1.0" encoding="UTF-8"?>
<svg width="52px" height="52px" viewBox="0 0 52 52" version="1.1" xmlns="http://www.w3.org/2000/svg" xmlns:xlink="http://www.w3.org/1999/xlink">
    <title>采集-清洗接入</title>
    <g id="大数据基础平台v1.0" stroke="none" stroke-width="1" fill="none" fill-rule="evenodd">
        <g id="画布元素切图" transform="translate(-1147.000000, -97.000000)">
            <g id="采集-清洗接入" transform="translate(1147.000000, 97.000000)">
                <g transform="translate(10.000000, 10.000000)">
                    <path d="M19.4,4.26666667 C21.0568542,4.26666667 22.4,5.60981242 22.4,7.26666667 L22.3996667,12.1996667 L30.5,12.2 C31.3284271,12.2 32,12.8715729 32,13.7 L32,17.7 C32,18.5284271 31.3284271,19.2 30.5,19.2 L28.7536667,19.1996667 L31.0598623,29.5658842 C31.2996179,30.6441193 30.6198958,31.7125619 29.5416607,31.9523175 C29.3991298,31.9840105 29.2535569,32 29.1075448,32 L7.76930639,32 C6.66473689,32 5.76930639,31.1045695 5.76930639,30 C5.76930639,29.8644612 5.78308438,29.7292734 5.81042789,29.5965214 L7.95166667,19.1996667 L5.76666667,19.2 C4.93823954,19.2 4.26666667,18.5284271 4.26666667,17.7 L4.26666667,13.7 C4.26666667,12.8715729 4.93823954,12.2 5.76666667,12.2 L14.9326667,12.1996667 L14.9333333,7.26666667 C14.9333333,5.60981242 16.2764791,4.26666667 17.9333333,4.26666667 L19.4,4.26666667 Z" id="形状结合" fill="#D7F3DB"></path>
                    <g id="ETL-清洗转换" fill-rule="nonzero">
                        <rect id="矩形" fill="#000000" opacity="0" x="0" y="0" width="29.8666667" height="29.8666667"></rect>
                        <path d="M26.6253617,16.0681012 L25.519449,16.0681012 L27.7542946,26.1966585 C28.1909959,27.9585721 27.4095335,28.6814135 26.418501,28.7992308 L4.3280243,28.8 C2.84555984,28.7661125 2.13881774,27.9190432 2.51805891,26.2079412 L4.72974376,16.169744 L3.72727144,16.169744 C2.20779803,16.0768986 1.06397328,15.661037 1.07001434,13.6936877 L1.07001434,11.7598118 C1.07001434,11.0090596 0.86190936,8.96551283 3.72727144,9.04656275 L11.0857663,9.04656275 L11.0857663,3.78232219 C11.1455746,1.96456719 13.2554849,1.06666667 14.7798353,1.06666667 C16.3041857,1.06666667 18.5234369,2.04928596 18.4394243,3.78232219 L18.4394243,9.08046997 L25.8323992,9.08046997 C28.8918374,8.99389706 28.7368375,10.35064 28.7999787,11.5565262 L28.7999787,13.6259522 C28.8052357,15.4341011 27.8347147,15.9865582 26.4185211,16.068121 L26.6253617,16.068121 L26.6253617,16.0681012 Z M4.6377232,26.7276942 L8.62750242,26.7276942 C8.62750242,26.7276942 8.66392931,26.4222727 8.69305076,26.2473714 L9.61715005,20.5494576 C9.80101058,19.9847316 10.1936986,19.743357 10.8924127,19.807266 C11.4127654,19.8548623 11.7716357,20.3235671 11.7486355,20.9108783 L10.8529552,26.4764572 C10.836819,26.5686715 10.8293931,26.6101926 10.8183748,26.7276942 L25.5962164,26.7276942 L23.4551576,16.1562127 L6.74428183,16.1562127 L4.6377232,26.7276942 Z M16.3129161,4.14283554 C16.3129161,3.36533623 15.5709112,2.83595737 14.7798153,2.83595737 C13.9887193,2.83595737 13.2467144,3.36535596 13.2467144,4.14283554 L13.2467144,9.13765267 L16.3129161,9.13765267 L16.3129161,4.14283554 Z M26.8676859,11.0871508 L3.12007615,11.0871508 L3.12007615,14.207977 L26.8676859,14.207977 L26.8676859,11.0871508 Z" id="形状" fill="#1AC44D"></path>
                    </g>
                </g>
            </g>
        </g>
    </g>
</svg>