<?xml version="1.0" encoding="UTF-8"?>
<svg width="40px" height="40px" viewBox="0 0 40 40" version="1.1" xmlns="http://www.w3.org/2000/svg" xmlns:xlink="http://www.w3.org/1999/xlink">
    <title>错误sql备份</title>
    <g id="大数据基础平台v1.0" stroke="none" stroke-width="1" fill="none" fill-rule="evenodd">
        <g id="画布元素切图" transform="translate(-652.000000, -474.000000)" fill-rule="nonzero">
            <g id="无法识别组件备份" transform="translate(642.000000, 464.000000)">
                <g id="错误sql备份" transform="translate(10.000000, 10.000000)">
                    <rect id="矩形" fill="#000000" opacity="0" x="0" y="0" width="40" height="40"></rect>
                    <path d="M24.4439236,10.4961401 C23.4095565,9.50339105 21.9758764,9 20.1827659,9 C18.3718759,9 16.8775836,9.57307659 15.7412264,10.7035175 C14.586039,11.8527892 14,13.179533 14,14.6468874 C14,15.5937791 14.4519648,16.0348809 15.4226488,16.0348809 C16.3424992,16.0348809 16.7946257,15.5726695 16.8453783,14.5800804 C16.885544,13.7999462 17.2012527,13.1257196 17.7837761,12.5761514 C18.3664613,12.0266232 19.145247,11.747921 20.0985554,11.747921 C21.0500455,11.747921 21.8083847,11.9970378 22.3534903,12.4887946 C22.9039701,12.9859488 23.1830286,13.6836837 23.1830286,14.5624491 C23.1830286,14.9269089 23.1581776,15.2459111 23.1092029,15.5108601 C23.0574401,15.787963 22.9435701,16.0669451 22.7708657,16.3405698 C22.6032529,16.6047191 22.3715527,16.8895782 22.0818264,17.187271 C21.8025659,17.4745689 21.4313365,17.8393485 20.9777957,18.2715748 C20.0235579,19.2023145 19.2979897,20.1452881 18.8225477,21.0733492 C18.3519143,21.9918949 18.1131023,22.9215951 18.1131023,23.8367026 C18.1131023,24.1620217 18.1312052,24.438485 18.1666835,24.6581763 C18.1977573,24.8520005 18.2618446,25.0056045 18.3574098,25.1151103 L18.3574502,25.1152703 C18.449904,25.2214578 18.5887059,25.2980199 18.7699768,25.3431975 C18.9773512,25.3946521 19.2728558,25.4209991 19.6480453,25.4209991 C20.5416709,25.4209991 20.9579149,24.9178079 20.9579149,23.8367825 C20.9579149,23.4711234 20.9826851,23.1391276 21.0311749,22.8500305 C21.0813213,22.5488995 21.1933327,22.2391726 21.3640974,21.9295258 C21.5298111,21.6282348 21.7802202,21.286084 22.1082534,20.912029 C22.4296192,20.5451304 22.869704,20.093074 23.4161026,19.5684134 C24.2972017,18.7104377 24.9577129,17.8924023 25.3784019,17.1376955 C25.7908072,16.3975416 26,15.5877421 26,14.7310857 C25.9998384,12.9119853 25.4765128,11.48709 24.4442065,10.4959802 L24.4442065,10.4959802 L24.4442065,10.4959802 L24.4439236,10.4961401 Z M21.0444287,27.5611007 C20.8575412,27.3753526 20.6432973,27.2280654 20.4019396,27.1195591 C20.1602586,27.0111727 19.899707,26.9567196 19.6194767,26.9567196 C19.3390848,26.9567196 19.0781695,27.0112126 18.8366906,27.1195591 C18.5950096,27.2280654 18.381291,27.3750327 18.1942014,27.5611007 C18.0074351,27.7467689 17.8592181,27.9601034 17.7504798,28.2000247 C17.6411355,28.4404258 17.5869482,28.6996176 17.5869482,28.9783598 C17.5869482,29.2571819 17.6412567,29.5165336 17.7504798,29.7568548 C17.8592181,29.9968161 18.0073947,30.2098708 18.1942014,30.3958188 C18.3810082,30.581487 18.59505,30.7285742 18.8366906,30.8373205 C19.0779271,30.9455069 19.3390443,31 19.6194767,31 C19.8996666,31 20.1602586,30.9455069 20.4019396,30.8373205 C20.6431761,30.7286942 20.8572987,30.5818468 21.0444287,30.3958188 C21.2312355,30.2101106 21.37921,29.9967362 21.488312,29.7568548 C21.5970502,29.5164937 21.6518032,29.2572619 21.6518032,28.9783598 C21.6518032,28.6995777 21.5970502,28.4404658 21.488312,28.2000247 C21.3790484,27.9600634 21.2312759,27.7469288 21.0444287,27.5611007 L21.0444287,27.5611007 L21.0444287,27.5611007 Z" id="形状" fill="#D5D5D5"></path>
                </g>
            </g>
        </g>
    </g>
</svg>