<?xml version="1.0" encoding="UTF-8"?>
<svg width="52px" height="52px" viewBox="0 0 52 52" version="1.1" xmlns="http://www.w3.org/2000/svg" xmlns:xlink="http://www.w3.org/1999/xlink">
    <title>采集-采集接入</title>
    <g id="大数据基础平台v1.0" stroke="none" stroke-width="1" fill="none" fill-rule="evenodd">
        <g id="画布元素切图" transform="translate(-1036.000000, -97.000000)">
            <g id="采集-采集接入" transform="translate(1036.000000, 97.000000)">
                <g transform="translate(8.000000, 10.000000)">
                    <path d="M11,4 C11.5522847,4 12,4.44771525 12,5 L12,7 L12,7 L16,7 L16,7 C16.5522847,7 17,7.44771525 17,8 L17,17 L19,17 L19,5 C19,4.44771525 19.4477153,4 20,4 L36,4 C36.5522847,4 37,4.44771525 37,5 L37,31 C37,31.5522847 36.5522847,32 36,32 L20,32 C19.4477153,32 19,31.5522847 19,31 L19,19 L19,19 L17,19 L17,28 L17,28 C17,28.5128358 16.6139598,28.9355072 16.1166211,28.9932723 L16,29 L16,29 L12,29 L12,31 C12,31.5522847 11.5522847,32 11,32 L5,32 C4.44771525,32 4,31.5522847 4,31 L4,25 C4,24.4477153 4.44771525,24 5,24 L11,24 C11.5522847,24 12,24.4477153 12,25 L12,27 L12,27 L15,27 L15,19 L12,19 L12,21 C12,21.5522847 11.5522847,22 11,22 L5,22 C4.44771525,22 4,21.5522847 4,21 L4,15 C4,14.4477153 4.44771525,14 5,14 L11,14 C11.5522847,14 12,14.4477153 12,15 L12,17 L12,17 L15,17 L15,9 L12,9 L12,11 C12,11.5522847 11.5522847,12 11,12 L5,12 C4.44771525,12 4,11.5522847 4,11 L4,5 C4,4.44771525 4.44771525,4 5,4 L11,4 Z" id="形状结合备份-12" fill="#D7F3DB"></path>
                    <path d="M7,0 C7.55228475,-1.01453063e-16 8,0.44771525 8,1 L8,3 L8,3 L12,3 L12,3 C12.5522847,3 13,3.44771525 13,4 L13,13 L15,13 L15,1 C15,0.44771525 15.4477153,1.01453063e-16 16,0 L32,0 C32.5522847,-1.01453063e-16 33,0.44771525 33,1 L33,27 C33,27.5522847 32.5522847,28 32,28 L16,28 C15.4477153,28 15,27.5522847 15,27 L15,15 L15,15 L13,15 L13,24 L13,24 C13,24.5128358 12.6139598,24.9355072 12.1166211,24.9932723 L12,25 L12,25 L8,25 L8,27 C8,27.5522847 7.55228475,28 7,28 L1,28 C0.44771525,28 6.76353751e-17,27.5522847 0,27 L0,21 C-6.76353751e-17,20.4477153 0.44771525,20 1,20 L7,20 C7.55228475,20 8,20.4477153 8,21 L8,23 L8,23 L11,23 L11,15 L8,15 L8,17 C8,17.5522847 7.55228475,18 7,18 L1,18 C0.44771525,18 6.76353751e-17,17.5522847 0,17 L0,11 C-6.76353751e-17,10.4477153 0.44771525,10 1,10 L7,10 C7.55228475,10 8,10.4477153 8,11 L8,13 L8,13 L11,13 L11,5 L8,5 L8,7 C8,7.55228475 7.55228475,8 7,8 L1,8 C0.44771525,8 6.76353751e-17,7.55228475 0,7 L0,1 C-6.76353751e-17,0.44771525 0.44771525,1.01453063e-16 1,0 L7,0 Z M5.5,22 L2.5,22 C2.25454011,22 2.05039163,22.1768752 2.00805567,22.4101244 L2,22.5 L2,25.5 C2,25.7454599 2.17687516,25.9496084 2.41012437,25.9919443 L2.5,26 L5.5,26 C5.74545989,26 5.94960837,25.8231248 5.99194433,25.5898756 L6,25.5 L6,22.5 C6,22.2238576 5.77614237,22 5.5,22 Z M30.5,2 L17.5,2 C17.2545401,2 17.0503916,2.17687516 17.0080557,2.41012437 L17,2.5 L17,25.5 C17,25.7454599 17.1768752,25.9496084 17.4101244,25.9919443 L17.5,26 L30.5,26 C30.7454599,26 30.9496084,25.8231248 30.9919443,25.5898756 L31,25.5 L31,2.5 C31,2.22385763 30.7761424,2 30.5,2 Z M28,20 C28.5522847,20 29,20.4477153 29,21 C29,21.5522847 28.5522847,22 28,22 L20,22 C19.4477153,22 19,21.5522847 19,21 C19,20.4477153 19.4477153,20 20,20 L28,20 Z M5.5,12 L2.5,12 C2.25454011,12 2.05039163,12.1768752 2.00805567,12.4101244 L2,12.5 L2,15.5 C2,15.7454599 2.17687516,15.9496084 2.41012437,15.9919443 L2.5,16 L5.5,16 C5.74545989,16 5.94960837,15.8231248 5.99194433,15.5898756 L6,15.5 L6,12.5 C6,12.2238576 5.77614237,12 5.5,12 Z M28,13 C28.5522847,13 29,13.4477153 29,14 C29,14.5522847 28.5522847,15 28,15 L20,15 C19.4477153,15 19,14.5522847 19,14 C19,13.4477153 19.4477153,13 20,13 L28,13 Z M28,6 C28.5522847,6 29,6.44771525 29,7 C29,7.55228475 28.5522847,8 28,8 L20,8 C19.4477153,8 19,7.55228475 19,7 C19,6.44771525 19.4477153,6 20,6 L28,6 Z M5.5,2 L2.5,2 C2.25454011,2 2.05039163,2.17687516 2.00805567,2.41012437 L2,2.5 L2,5.5 C2,5.74545989 2.17687516,5.94960837 2.41012437,5.99194433 L2.5,6 L5.5,6 C5.74545989,6 5.94960837,5.82312484 5.99194433,5.58987563 L6,5.5 L6,2.5 C6,2.22385763 5.77614237,2 5.5,2 Z" id="形状结合" fill="#1AC44D"></path>
                </g>
            </g>
        </g>
    </g>
</svg>