<?xml version="1.0" encoding="UTF-8"?>
<svg width="52px" height="52px" viewBox="0 0 52 52" version="1.1" xmlns="http://www.w3.org/2000/svg" xmlns:xlink="http://www.w3.org/1999/xlink">
    <title>其他-http</title>
    <g id="大数据基础平台v1.0" stroke="none" stroke-width="1" fill="none" fill-rule="evenodd">
        <g id="画布元素切图" transform="translate(-1258.000000, -97.000000)">
            <g id="其他-http" transform="translate(1258.000000, 97.000000)">
                <g transform="translate(7.000000, 11.000000)" id="形状结合">
                    <path d="M38,12.6666667 L38,29.5 C38,29.7761424 37.7761424,30 37.5,30 L4.5,30 C4.22385763,30 4,29.7761424 4,29.5 L4,12.6666667 L38,12.6666667 Z M37.5,4 C37.7761424,4 38,4.22385763 38,4.5 L38,10.5 L4,10.5 L4,4.5 C4,4.22385763 4.22385763,4 4.5,4 L37.5,4 Z" fill="#C5E0FF"></path>
                    <path d="M35,0 C35.5522847,-1.01453063e-16 36,0.44771525 36,1 L36,27 C36,27.5522847 35.5522847,28 35,28 L1,28 C0.44771525,28 6.76353751e-17,27.5522847 0,27 L0,1 C-6.76353751e-17,0.44771525 0.44771525,1.01453063e-16 1,0 L35,0 Z M34,10 L2,10 L2,25.5 C2,25.7454599 2.17687516,25.9496084 2.41012437,25.9919443 L2.5,26 L33.5,26 C33.7454599,26 33.9496084,25.8231248 33.9919443,25.5898756 L34,25.5 L34,10 Z M5.66862055,14 L5.66862055,17.0746385 L8.8198515,17.0746385 L8.8198515,14 L10.4939429,14 L10.4939429,22.0640875 L8.8198515,22.0640875 L8.8198515,18.4642438 L5.66862055,18.4642438 L5.66862055,22.0640875 L4,22.0640875 L4,14 L5.66862055,14 Z M17.9617038,14 L17.9617038,15.4279015 L15.5490426,15.4279015 L15.5490426,22.0640875 L13.8530676,22.0640875 L13.8530676,15.4279015 L11.4294646,15.4279015 L11.4294646,14 L17.9617038,14 Z M24.8057835,14 L24.8057835,15.4279015 L22.3931223,15.4279015 L22.3931223,22.0640875 L20.6971473,22.0640875 L20.6971473,15.4279015 L18.2735444,15.4279015 L18.2735444,14 L24.8057835,14 Z M29.3411489,14 L29.5791325,14.0062368 C30.2783118,14.0436577 30.8445487,14.2494725 31.2778429,14.6236811 C31.759281,15.0394685 32,15.6832096 32,16.5549043 C32,17.5068386 31.759281,18.1797577 31.2778429,18.5736616 C30.7964048,18.9675655 30.1088967,19.1645174 29.2153185,19.1645174 L29.2153185,19.1645174 L27.5029308,19.1645174 L27.5029308,22.0640875 L25.8288394,22.0640875 L25.8288394,14 L29.3411489,14 Z M29.0730754,15.4005471 L27.5029308,15.4005471 L27.5029308,17.7749121 L29.0730754,17.7749121 C29.4706265,17.7749121 29.7797317,17.6782597 30.0003908,17.4849551 C30.2210499,17.2916504 30.3313794,16.9852807 30.3313794,16.565846 C30.3313794,16.1464114 30.2210499,15.8473362 30.0003908,15.6686206 C29.7797317,15.4899049 29.4706265,15.4005471 29.0730754,15.4005471 L29.0730754,15.4005471 Z M33.5,2 L2.5,2 C2.25454011,2 2.05039163,2.17687516 2.00805567,2.41012437 L2,2.5 L2,8 L34,8 L34,2.5 C34,2.22385763 33.7761424,2 33.5,2 Z M5,4 C5.55228475,4 6,4.44771525 6,5 C6,5.55228475 5.55228475,6 5,6 C4.44771525,6 4,5.55228475 4,5 C4,4.44771525 4.44771525,4 5,4 Z M9,4 C9.55228475,4 10,4.44771525 10,5 C10,5.55228475 9.55228475,6 9,6 C8.44771525,6 8,5.55228475 8,5 C8,4.44771525 8.44771525,4 9,4 Z M13,4 C13.5522847,4 14,4.44771525 14,5 C14,5.55228475 13.5522847,6 13,6 C12.4477153,6 12,5.55228475 12,5 C12,4.44771525 12.4477153,4 13,4 Z" fill="#1B90FF"></path>
                </g>
            </g>
        </g>
    </g>
</svg>