<?xml version="1.0" encoding="UTF-8"?>
<svg width="52px" height="52px" viewBox="0 0 52 52" version="1.1" xmlns="http://www.w3.org/2000/svg" xmlns:xlink="http://www.w3.org/1999/xlink">
    <title>脚本-shell</title>
    <g id="大数据基础平台v1.0" stroke="none" stroke-width="1" fill="none" fill-rule="evenodd">
        <g id="画布元素切图" transform="translate(-37.000000, -97.000000)">
            <g id="脚本-shell" transform="translate(37.000000, 97.000000)">
                <g transform="translate(8.000000, 12.000000)">
                    <rect id="矩形" fill="#BAE8E9" x="4" y="4" width="32" height="24" rx="1"></rect>
                    <path d="M31,0 C31.5522847,-1.01453063e-16 32,0.44771525 32,1 L32,23 C32,23.5522847 31.5522847,24 31,24 L1,24 C0.44771525,24 6.76353751e-17,23.5522847 0,23 L0,1 C-6.76353751e-17,0.44771525 0.44771525,1.01453063e-16 1,0 L31,0 Z M29.5,2 L2.5,2 C2.22385763,2 2,2.22385763 2,2.5 L2,2.5 L2,21.5 C2,21.7761424 2.22385763,22 2.5,22 L2.5,22 L29.5,22 C29.7761424,22 30,21.7761424 30,21.5 L30,21.5 L30,2.5 C30,2.22385763 29.7761424,2 29.5,2 L29.5,2 Z" id="形状结合" fill="#17C2C2"></path>
                    <path d="M25.5,16.5 L25.5,18.5 L14.5,18.5 L14.5,16.5 L25.5,16.5 Z M7.91421356,5.5 L14.2781746,11.863961 L14.253,11.889 L14.2781746,11.9142136 L7.91421356,18.2781746 L6.5,16.863961 L11.474,11.888 L6.5,6.91421356 L7.91421356,5.5 Z" id="形状结合" fill="#17C2C2"></path>
                </g>
            </g>
        </g>
    </g>
</svg>