<?xml version="1.0" encoding="UTF-8"?>
<svg width="52px" height="52px" viewBox="0 0 52 52" version="1.1" xmlns="http://www.w3.org/2000/svg" xmlns:xlink="http://www.w3.org/1999/xlink">
    <title>数据库-sql</title>
    <g id="大数据基础平台v1.0" stroke="none" stroke-width="1" fill="none" fill-rule="evenodd">
        <g id="画布元素切图" transform="translate(-370.000000, -97.000000)">
            <g id="数据库-sql" transform="translate(370.000000, 97.000000)">
                <g transform="translate(8.000000, 6.000000)">
                    <path d="M18.5,4 C26.5081289,4 33,6.6862915 33,10 C33,10.1784957 32.9811636,10.355171 32.9442686,10.529704 C32.9806959,10.6801453 33,10.8378183 33,11 L33,33 C33,33.1621817 32.9806959,33.3198547 32.9442601,33.4708466 C32.9811636,33.644829 33,33.8215043 33,34 C33,37.3137085 26.5081289,40 18.5,40 C10.4918711,40 4,37.3137085 4,34 C4,33.8215043 4.01883636,33.644829 4.05573141,33.470296 C4.0193041,33.3198547 4,33.1621817 4,33 L4,11 C4,10.8378183 4.0193041,10.6801453 4.05573993,10.5291534 C4.01883636,10.355171 4,10.1784957 4,10 C4,6.6862915 10.4918711,4 18.5,4 Z" id="形状结合" fill="#CDD6FF"></path>
                    <path d="M14.5,0 C22.3810157,0 28.7935268,2.60168922 28.995113,5.84268683 L29,6 L29,6 L29,22 C29,22.5522847 28.5522847,23 28,23 C27.4477153,23 27,22.5522847 27,22 L27.0007421,9.04210577 C24.4794631,10.8122643 19.8249359,12 14.5,12 C9.1757549,12 4.52174465,10.8125725 2.0002393,9.0427947 L2,17 C2,19.209139 7.59644063,21 14.5,21 C15.0079242,21 15.5087727,20.9903058 16.0008373,20.971464 L16,21 C16.5522847,21 17,21.4477153 17,22 C17,22.5522847 16.5522847,23 16,23 C15.9259897,23 15.8538572,22.9919599 15.7844283,22.9767055 L16.0007574,22.9682524 C15.5074168,22.9892436 15.0067441,23 14.5,23 C9.1757549,23 4.52174465,21.8125725 2.0002393,20.0427947 L2,30 C2,32.209139 7.59644063,34 14.5,34 C15.0079242,34 15.5087727,33.9903058 16.0008373,33.971464 L16,34 C16.5522847,34 17,34.4477153 17,35 C17,35.5522847 16.5522847,36 16,36 C15.9259897,36 15.8538572,35.9919599 15.7844283,35.9767055 L16.0007574,35.9682524 C15.5074168,35.9892436 15.0067441,36 14.5,36 C6.49187113,36 3.67705866e-13,33.3137085 3.67705866e-13,30 L8.52651283e-14,6 C8.52651283e-14,2.6862915 6.49187113,0 14.5,0 Z M14.5,2 C7.59644063,2 2,3.790861 2,6 C2,8.209139 7.59644063,10 14.5,10 C21.4035594,10 27,8.209139 27,6 C27,3.790861 21.4035594,2 14.5,2 Z" id="形状结合" fill="#3054EB"></path>
                    <path d="M17.4941003,32.9027067 C18.5570305,32.9027067 19.3796706,32.6511089 19.9620206,32.1479132 C20.5443707,31.6447175 20.8355457,31.0124248 20.8355457,30.2510351 C20.8355457,29.5084917 20.5867748,28.9412187 20.089233,28.5492161 C19.7688463,28.2966759 19.29392,28.0950207 18.6644543,27.9442505 L18.6644543,27.9442505 L17.2283677,27.5993636 C16.6742871,27.4674396 16.3124385,27.3524773 16.142822,27.2544766 C15.8789741,27.1074756 15.7470501,26.8850895 15.7470501,26.5873183 C15.7470501,26.2631623 15.8808587,26.0106222 16.1484759,25.8296979 C16.4160931,25.6487736 16.7741724,25.5583114 17.2227139,25.5583114 C17.6260243,25.5583114 17.9633727,25.6280427 18.2347591,25.7675051 C18.6418387,25.9785835 18.8604556,26.3347782 18.8906096,26.8360892 L18.8906096,26.8360892 L20.5641593,26.8360892 C20.5340052,25.9503141 20.2089069,25.2746749 19.5888643,24.8091718 C18.9688217,24.3436687 18.2196821,24.1109171 17.3414454,24.1109171 C16.289823,24.1109171 15.4926254,24.3578034 14.9498525,24.8515759 C14.4070796,25.3453485 14.1356932,25.9653911 14.1356932,26.7117038 C14.1356932,27.5296323 14.4165028,28.1308286 14.9781219,28.5152928 C15.3098165,28.7452174 15.9091282,28.9581803 16.776057,29.1541816 L16.776057,29.1541816 L17.6580629,29.3520676 C18.174451,29.4651453 18.5532612,29.5951846 18.7944936,29.7421856 C19.035726,29.8929558 19.1563422,30.1059188 19.1563422,30.3810745 C19.1563422,30.8522315 18.9132252,31.1745029 18.4269912,31.3478886 C18.1706817,31.4383508 17.8371026,31.4835818 17.4262537,31.4835818 C16.7402491,31.4835818 16.2558997,31.3120807 15.9732055,30.9690784 C15.818666,30.7806156 15.7150115,30.4960368 15.6622419,30.1153419 L15.6622419,30.1153419 L14,30.1153419 C14,30.9822708 14.3109636,31.6635638 14.9328909,32.159221 C15.5548181,32.6548781 16.4085546,32.9027067 17.4941003,32.9027067 Z M28.9319076,33.2928247 L29.8421829,32.3429722 L28.8810226,31.4440047 C29.1674861,31.1273872 29.3842183,30.7297306 29.5312193,30.2510351 C29.7121436,29.7497241 29.8026057,29.1277969 29.8026057,28.3852534 C29.8026057,26.9830902 29.380449,25.8918906 28.5361357,25.1116546 C27.8049,24.4369578 26.9002786,24.0996094 25.8222714,24.0996094 C24.7518027,24.0996094 23.8566044,24.4181115 23.1366765,25.0551158 C22.2546706,25.8353518 21.8136676,26.9868595 21.8136676,28.5096389 C21.8136676,30.0211105 22.2433628,31.1669643 23.1027532,31.9472003 C23.8113733,32.5955124 24.7084562,32.9196684 25.794002,32.9196684 C26.3141593,32.9196684 26.7608161,32.8574756 27.1339725,32.7330902 C27.3563586,32.6577051 27.6202065,32.5276657 27.9255162,32.3429722 L27.9255162,32.3429722 L28.9319076,33.2928247 Z M25.794002,31.4440047 C25.2625369,31.4440047 24.8064569,31.2838113 24.425762,30.9634245 C23.8377581,30.469652 23.5437561,29.6517234 23.5437561,28.5096389 C23.5437561,27.5334016 23.7491806,26.8002813 24.1600295,26.310278 C24.5708784,25.8202747 25.1211898,25.5752731 25.8109636,25.5752731 C26.5459685,25.5752731 27.1047607,25.8306402 27.4873402,26.3413744 C27.8699197,26.8521086 28.0612094,27.5748634 28.0612094,28.5096389 C28.0612094,28.9167185 28.0197476,29.2729132 27.936824,29.5782229 C27.8840544,29.7817628 27.7917076,30.0192259 27.6597837,30.2906123 L27.6597837,30.2906123 L26.817355,29.4877608 L25.9183874,30.4263055 L26.7608161,31.2291571 C26.6025074,31.2970037 26.472468,31.3441194 26.3706981,31.3705042 C26.1860046,31.4195045 25.9937725,31.4440047 25.794002,31.4440047 Z M37,32.6878591 L37,31.1895799 L32.8726647,31.1895799 L32.8726647,24.3540342 L31.1312684,24.3540342 L31.1312684,32.6878591 L37,32.6878591 Z" id="SQL" fill="#3054EB" fill-rule="nonzero"></path>
                </g>
            </g>
        </g>
    </g>
</svg>